<svg id="b7205ca8-6a0a-4c9a-8a1f-a011ec659d28" data-name="Layer 1" xmlns="http://www.w3.org/2000/svg" viewBox="0 0 40 40"><defs><style>.b2076ed0-99da-4a15-81fa-cc4e74a8b250{fill:#99a7aa;}.a8e68e3e-b467-4be9-a43b-daecfdb30c49{fill:#fff;}</style></defs><title>adopt-a-drain</title><circle class="b2076ed0-99da-4a15-81fa-cc4e74a8b250" cx="20.01" cy="20" r="15"/><path class="b2076ed0-99da-4a15-81fa-cc4e74a8b250" d="M20,32.91A12.91,12.91,0,1,1,32.92,20,12.92,12.92,0,0,1,20,32.91Z"/><path class="a8e68e3e-b467-4be9-a43b-daecfdb30c49" d="M20,7.61A12.39,12.39,0,1,1,7.62,20,12.39,12.39,0,0,1,20,7.61m0-1A13.43,13.43,0,1,0,33.44,20,13.45,13.45,0,0,0,20,6.57Z"/><path class="a8e68e3e-b467-4be9-a43b-daecfdb30c49" d="M20,26.45l.23-.2.6-.54.86-.78,1-.91,1.05-.95,1-.88.8-.72a5.46,5.46,0,0,0,.77-.75,3.74,3.74,0,0,0,.49-.87,4,4,0,0,0-6.8-4,4,4,0,0,0-7.1,2.47c0,1.63,1.1,2.73,2.23,3.74l3,2.73Zm4.44-4.37h0Zm-10-.59.07.06Z"/></svg>