<svg id="a9284a41-92ed-4898-845d-d55d3929ffc9" data-name="Layer 1" xmlns="http://www.w3.org/2000/svg" viewBox="0 0 40 40"><defs><style>.ac7dcd8d-4d12-480c-b013-078545a970de{fill:#f05523;}.b48b2da2-d5e8-4b47-9b10-3d9174fffc19{fill:#fff;}</style></defs><title>adopt-a-drain</title><circle class="ac7dcd8d-4d12-480c-b013-078545a970de" cx="20.02" cy="20" r="15"/><path class="ac7dcd8d-4d12-480c-b013-078545a970de" d="M20,32.91A12.91,12.91,0,1,1,32.93,20,12.92,12.92,0,0,1,20,32.91Z"/><path class="b48b2da2-d5e8-4b47-9b10-3d9174fffc19" d="M20,7.61A12.39,12.39,0,1,1,7.63,20,12.39,12.39,0,0,1,20,7.61m0-1A13.43,13.43,0,1,0,33.45,20,13.45,13.45,0,0,0,20,6.57Z"/><path class="b48b2da2-d5e8-4b47-9b10-3d9174fffc19" d="M20,26.45l.23-.2.6-.54.86-.78,1-.91,1.05-.95,1-.88.8-.72a5.46,5.46,0,0,0,.77-.75,4.18,4.18,0,0,0,.5-.87,4.14,4.14,0,0,0,.29-1.51A4,4,0,0,0,20,15.87a4,4,0,0,0-7.1,2.47c0,1.63,1.11,2.73,2.23,3.74l3.05,2.73Zm4.44-4.37h0Zm-9.95-.59.07.06Z"/></svg>