<?xml version="1.0" encoding="utf-8"?>
<svg version="1.1" id="Layer_1" width="30px" height="36px" xmlns="http://www.w3.org/2000/svg" xmlns:xlink="http://www.w3.org/1999/xlink" x="0px" y="0px"
	 viewBox="0 0 26.08 37.97" style="enable-background:new 0 0 26.08 37.97;" xml:space="preserve">
<style type="text/css">
	.c-st0{fill:#05A2D9;}
	.c-st1{fill:#FFFFFF;}
	.c-st2{fill:#FDFEFD;}
	.c-st3{fill:#FCFDFD;}
	.c-st4{fill:#FCFDFC;}
	.c-st5{fill:#FBFDFD;}
	.c-st6{fill:#99A7AA;}
	.c-st7{fill:#F05523;}
</style>
<g>
	<path class="c-st6" d="M0.62,16.86c2.8,6.79,7.09,13.85,12.43,21.09c5.34-7.24,9.63-14.3,12.43-21.09H0.62z"/>
	<circle class="c-st6" cx="13.04" cy="13.06" r="13.04"/>
	<g>
		<path class="c-st1" d="M13.04,22.9c-5.43,0-9.84-4.41-9.84-9.84s4.41-9.84,9.84-9.84c5.43,0,9.84,4.41,9.84,9.84
			S18.47,22.9,13.04,22.9z"/>
		<path class="c-st1" d="M13.04,3.62c5.22,0,9.44,4.23,9.44,9.44s-4.23,9.44-9.44,9.44c-5.22,0-9.44-4.23-9.44-9.44
			S7.82,3.62,13.04,3.62 M13.04,2.83C7.4,2.83,2.8,7.42,2.8,13.06S7.4,23.3,13.04,23.3c5.64,0,10.24-4.59,10.24-10.24
			S18.68,2.83,13.04,2.83L13.04,2.83z"/>
	</g>
	<path class="c-st6" d="M13.05,17.98c0.06-0.05,0.11-0.1,0.17-0.15c0.15-0.14,0.31-0.27,0.46-0.41c0.22-0.2,0.44-0.39,0.66-0.59
		c0.26-0.23,0.52-0.46,0.77-0.7c0.27-0.24,0.54-0.48,0.8-0.72c0.25-0.22,0.5-0.45,0.75-0.67c0.2-0.18,0.4-0.36,0.61-0.54
		c0.21-0.18,0.42-0.35,0.59-0.58c0.15-0.2,0.28-0.43,0.38-0.66c0.15-0.36,0.23-0.76,0.23-1.15c0-1.68-1.36-3.03-3.03-3.03
		c-0.96,0-1.82,0.45-2.38,1.15c-0.56-0.7-1.41-1.15-2.38-1.15c-1.68,0-3.03,1.36-3.03,3.03c0,1.25,0.84,2.08,1.7,2.85
		c0.77,0.69,1.55,1.39,2.32,2.08C12.12,17.14,12.58,17.56,13.05,17.98z M16.43,14.65c0,0-0.01,0-0.01,0.01
		C16.42,14.65,16.42,14.65,16.43,14.65z M8.84,14.2c0.02,0.01,0.04,0.03,0.05,0.04C8.88,14.23,8.86,14.21,8.84,14.2z"/>
</g>
</svg>
