<svg id="aaaafb88-583f-46ec-a1f7-9c1b885f7a49" data-name="Layer 1" xmlns="http://www.w3.org/2000/svg" width="36px" height="40px"><defs><style>.bb57ab4c-18d4-4635-a36b-0a566ce1cfcf{opacity:0.85;}.f04a512d-fc59-46f4-bf26-32f41140d11f{fill:#99a7aa;}.ab5f506b-1457-4b3d-9629-1746a85d5a23{fill:#fff;}</style></defs><title>adopt-a-drain</title><g class="bb57ab4c-18d4-4635-a36b-0a566ce1cfcf"><ellipse cx="11.36" cy="33.01" rx="8.79" ry="1.25"/></g><path class="f04a512d-fc59-46f4-bf26-32f41140d11f" d="M.54,14.67A89.54,89.54,0,0,0,11.36,33,89.16,89.16,0,0,0,22.19,14.67Z"/><circle class="f04a512d-fc59-46f4-bf26-32f41140d11f" cx="11.36" cy="11.36" r="11.36"/><path class="ab5f506b-1457-4b3d-9629-1746a85d5a23" d="M11.36,19.92a8.57,8.57,0,1,1,8.56-8.56A8.57,8.57,0,0,1,11.36,19.92Z"/><path class="ab5f506b-1457-4b3d-9629-1746a85d5a23" d="M11.36,3.13a8.23,8.23,0,1,1-8.23,8.23,8.22,8.22,0,0,1,8.23-8.23m0-.69a8.92,8.92,0,1,0,8.91,8.92,8.93,8.93,0,0,0-8.91-8.92Z"/><path class="f04a512d-fc59-46f4-bf26-32f41140d11f" d="M11.36,15.64l.15-.14.4-.36.57-.51.68-.61.7-.63.65-.58.53-.48a4.81,4.81,0,0,0,.51-.5,3,3,0,0,0,.33-.58,2.65,2.65,0,0,0-2.45-3.64,2.64,2.64,0,0,0-2.07,1,2.64,2.64,0,0,0-4.71,1.64,3.4,3.4,0,0,0,1.48,2.48l2,1.82Zm3-2.9h0ZM7.7,12.35l0,0Z"/></svg>