<svg id="f577a897-e1b4-4e1e-b702-f47604394588" data-name="Layer 1" xmlns="http://www.w3.org/2000/svg" width="36px" height="40px"><defs><style>.b6e1d085-52bf-4588-8b0c-385d804c32a3{opacity:0.85;}.ae87ba4b-16b5-40fa-a164-92475ac2f2b0{fill:#05a2d9;}.f600cdf5-5ae3-442b-b8df-2f690edc308f{fill:#fff;}</style></defs><title>adopt-a-drain</title><g class="b6e1d085-52bf-4588-8b0c-385d804c32a3"><ellipse cx="11.31" cy="32.95" rx="8.75" ry="1.24"/></g><path class="ae87ba4b-16b5-40fa-a164-92475ac2f2b0" d="M.53,14.7A88.47,88.47,0,0,0,11.33,33,89,89,0,0,0,22.14,14.7Z"/><circle class="ae87ba4b-16b5-40fa-a164-92475ac2f2b0" cx="11.33" cy="11.39" r="11.33"/><path class="f600cdf5-5ae3-442b-b8df-2f690edc308f" d="M11.33,20a8.56,8.56,0,1,1,8.55-8.56A8.57,8.57,0,0,1,11.33,20Z"/><path class="f600cdf5-5ae3-442b-b8df-2f690edc308f" d="M11.33,3.19a8.21,8.21,0,1,1-8.2,8.2,8.2,8.2,0,0,1,8.2-8.2m0-.69a8.9,8.9,0,1,0,8.9,8.89,8.9,8.9,0,0,0-8.9-8.89Z"/><path class="ae87ba4b-16b5-40fa-a164-92475ac2f2b0" d="M4.71,9.15a7.74,7.74,0,0,0,1.39-.3,18.86,18.86,0,0,1,2.32-.51,4.52,4.52,0,0,1,2.3.31,8.13,8.13,0,0,0,1.36.48,2.24,2.24,0,0,0,2.05-.47A2.44,2.44,0,0,1,15.36,8a4.73,4.73,0,0,1,2,.19l.12,0a1.16,1.16,0,0,1,.8,1.07c0,.14-.05.18-.2.11A5.38,5.38,0,0,0,16.58,9a2.58,2.58,0,0,0-2.16.51,2.48,2.48,0,0,1-2.8.26,13.19,13.19,0,0,0-1.47-.58,4.61,4.61,0,0,0-1.92-.08c-1.08.14-2.11.44-3.17.66a1.41,1.41,0,0,1-.46,0c-.25,0-.3-.11-.27-.41S4.36,9.15,4.71,9.15Z"/><path class="ae87ba4b-16b5-40fa-a164-92475ac2f2b0" d="M18.57,11.84v.09c0,.25-.08.3-.3.17A5.19,5.19,0,0,0,17,11.59a3.31,3.31,0,0,0-1.82-.06,2.66,2.66,0,0,0-.61.3,2.55,2.55,0,0,1-2.76.09c-.44-.22-.87-.46-1.32-.67a4.89,4.89,0,0,0-2.42-.36c-1,.06-1.9.23-2.86.33a2.44,2.44,0,0,1-.89-.09c-.15-.05-.2-.19-.15-.38s.16-.09.24-.08a3.4,3.4,0,0,0,1.1-.07c.91-.14,1.81-.32,2.73-.39a4.88,4.88,0,0,1,2.7.58,5.23,5.23,0,0,0,1.68.62,2.13,2.13,0,0,0,1.46-.27,4.69,4.69,0,0,1,1-.56,3.42,3.42,0,0,1,1.74,0,5.9,5.9,0,0,1,1.4.52.42.42,0,0,1,.26.34A3.49,3.49,0,0,1,18.57,11.84Z"/><path class="ae87ba4b-16b5-40fa-a164-92475ac2f2b0" d="M5.35,12.9a2.08,2.08,0,0,1-.86-.15c-.17-.06-.27-.14-.23-.33a1.33,1.33,0,0,0,0-.2c0-.08,0-.11.1-.07a4.06,4.06,0,0,0,2.24.07,12.37,12.37,0,0,1,2.72-.09,4.06,4.06,0,0,1,1.48.5,13.27,13.27,0,0,0,1.44.77,2.41,2.41,0,0,0,1.45.16,1.89,1.89,0,0,0,.65-.28A2.74,2.74,0,0,1,16.91,13a5.68,5.68,0,0,1,1,.43c.16.09.19.18.11.34a2.44,2.44,0,0,1-.24.41.18.18,0,0,1-.28.06,4.37,4.37,0,0,0-1.81-.53,1.91,1.91,0,0,0-1.14.26,2.5,2.5,0,0,1-1.45.44A3.22,3.22,0,0,1,11.74,14l-.87-.53a4.81,4.81,0,0,0-2.81-.71c-.79,0-1.56.11-2.35.14Z"/><path class="ae87ba4b-16b5-40fa-a164-92475ac2f2b0" d="M7.91,14.67c-.49,0-1,0-1.45,0A2.35,2.35,0,0,1,5,14.35l-.15-.13a.11.11,0,0,1,0-.12.08.08,0,0,1,.1-.06,21.35,21.35,0,0,0,2.77.05,9.3,9.3,0,0,1,1.58.16,3.28,3.28,0,0,1,.61.18c.07,0,.22.06.19.16s-.23.1-.3.1Z"/></svg>