<?xml version="1.0" encoding="utf-8"?>
<svg version="1.1" id="Layer_1" width="30px" height="36px" xmlns="http://www.w3.org/2000/svg" xmlns:xlink="http://www.w3.org/1999/xlink" x="0px" y="0px"
	 viewBox="0 0 26.13 38" style="enable-background:new 0 0 26.13 38;" xml:space="preserve">
<style type="text/css">
	.a-st0{fill:#05A2D9;}
	.a-st1{fill:#FFFFFF;}
	.a-st2{fill:#FDFEFD;}
	.a-st3{fill:#FCFDFD;}
	.a-st4{fill:#FCFDFC;}
	.a-st5{fill:#FBFDFD;}
	.a-st6{fill:#99A7AA;}
	.a-st7{fill:#F05523;}
</style>
<g>
	<g>
		<path class="a-st0" d="M0.61,16.89c2.8,6.8,7.11,13.87,12.45,21.13c5.35-7.25,9.65-14.32,12.45-21.13H0.61z"/>
		<circle class="a-st0" cx="13.06" cy="13.08" r="13.06"/>
		<g>
			<path class="a-st1" d="M13.06,22.94c-5.44,0-9.86-4.42-9.86-9.86s4.42-9.86,9.86-9.86s9.86,4.42,9.86,9.86S18.5,22.94,13.06,22.94z
				"/>
			<path class="a-st1" d="M13.06,3.62c5.23,0,9.46,4.24,9.46,9.46s-4.24,9.46-9.46,9.46S3.6,18.31,3.6,13.08S7.84,3.62,13.06,3.62
				 M13.06,2.83c-5.65,0-10.25,4.6-10.25,10.25s4.6,10.25,10.25,10.25s10.25-4.6,10.25-10.25S18.72,2.83,13.06,2.83L13.06,2.83z"/>
		</g>
		<path class="a-st0" d="M5.43,10.49c0.5-0.03,1.05-0.2,1.6-0.35C7.92,9.91,8.8,9.68,9.71,9.56c0.92-0.12,1.79,0.01,2.64,0.36
			c0.51,0.21,1.03,0.43,1.57,0.55c0.87,0.19,1.66,0.06,2.35-0.54c0.41-0.36,0.86-0.66,1.42-0.74c0.79-0.11,1.56-0.01,2.31,0.22
			c0.05,0.01,0.09,0.03,0.14,0.05c0.56,0.2,0.89,0.64,0.93,1.24c0.01,0.16-0.07,0.2-0.23,0.12c-0.56-0.26-1.14-0.44-1.75-0.53
			c-0.91-0.13-1.76-0.04-2.48,0.59c-1.01,0.86-2.1,0.77-3.23,0.3c-0.56-0.23-1.1-0.5-1.69-0.67c-0.73-0.21-1.48-0.18-2.22-0.09
			c-1.24,0.16-2.44,0.51-3.65,0.76c-0.17,0.04-0.34,0.07-0.52,0.04c-0.29-0.05-0.35-0.12-0.32-0.47C5.01,10.5,5.03,10.49,5.43,10.49
			z"/>
		<path class="a-st0" d="M21.4,13.59c0,0.06,0,0.08,0,0.11c-0.01,0.3-0.09,0.34-0.34,0.2c-0.47-0.25-0.95-0.47-1.46-0.6
			c-0.7-0.17-1.39-0.29-2.1-0.06c-0.25,0.08-0.48,0.2-0.7,0.35c-1.04,0.72-2.11,0.62-3.18,0.1c-0.51-0.25-1.01-0.53-1.53-0.77
			c-0.89-0.42-1.83-0.46-2.79-0.41c-1.11,0.06-2.19,0.26-3.29,0.37c-0.35,0.04-0.69-0.01-1.02-0.1c-0.18-0.05-0.24-0.21-0.17-0.44
			c0.05-0.17,0.18-0.1,0.28-0.08c0.43,0.07,0.84-0.02,1.26-0.08C7.4,12,8.44,11.8,9.5,11.72c1.11-0.09,2.14,0.15,3.12,0.66
			c0.61,0.32,1.23,0.62,1.93,0.72c0.6,0.08,1.16,0.01,1.69-0.31c0.38-0.23,0.74-0.52,1.18-0.64c0.67-0.19,1.34-0.11,2.01,0.03
			c0.57,0.12,1.1,0.35,1.61,0.61c0.17,0.09,0.28,0.2,0.31,0.39C21.36,13.33,21.41,13.48,21.4,13.59z"/>
		<path class="a-st0" d="M6.16,14.81c-0.34,0.01-0.67-0.04-0.99-0.17c-0.19-0.07-0.3-0.17-0.26-0.39c0.01-0.08,0-0.15,0-0.23
			c0-0.08,0.02-0.12,0.11-0.08c0.85,0.4,1.72,0.16,2.58,0.08c1.05-0.1,2.09-0.22,3.14-0.1c0.61,0.07,1.17,0.29,1.71,0.58
			c0.55,0.3,1.07,0.65,1.66,0.89c0.54,0.21,1.1,0.31,1.67,0.18c0.27-0.06,0.53-0.16,0.75-0.32c0.93-0.67,1.94-0.62,2.97-0.3
			c0.41,0.12,0.79,0.3,1.16,0.5c0.18,0.1,0.22,0.21,0.12,0.39c-0.08,0.16-0.17,0.32-0.28,0.47c-0.09,0.12-0.17,0.15-0.32,0.07
			c-0.65-0.35-1.35-0.57-2.09-0.61c-0.47-0.03-0.91,0.06-1.32,0.3c-0.52,0.3-1.05,0.55-1.67,0.51c-0.57-0.04-1.09-0.23-1.57-0.51
			c-0.34-0.2-0.68-0.4-1.01-0.62c-0.99-0.65-2.08-0.84-3.25-0.82c-0.9,0.02-1.8,0.13-2.7,0.16C6.45,14.8,6.31,14.81,6.16,14.81z"/>
	</g>
	<path class="a-st0" d="M9.11,16.85c-0.56,0-1.11,0-1.67,0.04c-0.57,0.04-1.25-0.06-1.72-0.4c-0.06-0.05-0.12-0.1-0.17-0.15
		c-0.04-0.04-0.04-0.09-0.02-0.14c0.02-0.05,0.07-0.07,0.12-0.06c1.06,0.17,2.12,0.02,3.18,0.06c0.61,0.02,1.22,0.06,1.82,0.18
		c0.24,0.05,0.48,0.11,0.71,0.21c0.08,0.03,0.25,0.06,0.21,0.19c-0.04,0.11-0.26,0.11-0.34,0.11C10.54,16.88,9.83,16.86,9.11,16.85z
		"/>
</g>
</svg>
