<svg id="fba7d0be-d5e5-4ee0-aefd-35a26619c885" data-name="Layer 1" xmlns="http://www.w3.org/2000/svg" viewBox="0 0 40 40"><defs><style>.a43550fc-60e3-410e-8b3e-7866b71a9e50{fill:#05a2d9;}.a83d46a7-ba78-4617-94f0-16af20f5325e{fill:#fff;}.a2bbdea5-a25b-4995-868d-5946a1159ff2{fill:#fdfefd;}.b3d6beca-1357-44b5-be4f-7fa27478ede4{fill:#fcfdfd;}.fe93b769-cc7d-40eb-b022-182b48dec213{fill:#fcfdfc;}.b2893290-fa8b-4f40-91ca-bfdb220ffac5{fill:#fbfdfd;}</style></defs><title>adopt-a-drain</title><circle class="a43550fc-60e3-410e-8b3e-7866b71a9e50" cx="20.11" cy="20" r="15"/><path class="a43550fc-60e3-410e-8b3e-7866b71a9e50" d="M20.11,32.91A12.91,12.91,0,1,1,33,20,12.92,12.92,0,0,1,20.11,32.91Z"/><path class="a83d46a7-ba78-4617-94f0-16af20f5325e" d="M20.11,7.61A12.39,12.39,0,1,1,7.72,20,12.39,12.39,0,0,1,20.11,7.61m0-1A13.43,13.43,0,1,0,33.54,20,13.44,13.44,0,0,0,20.11,6.57Z"/><path class="a2bbdea5-a25b-4995-868d-5946a1159ff2" d="M10.11,16.61a11.08,11.08,0,0,0,2.1-.46,28.14,28.14,0,0,1,3.51-.76,6.6,6.6,0,0,1,3.46.47,11.7,11.7,0,0,0,2.06.72,3.37,3.37,0,0,0,3.09-.71,3.59,3.59,0,0,1,1.86-1,6.78,6.78,0,0,1,3,.29l.18.06a1.76,1.76,0,0,1,1.22,1.63c0,.2-.09.26-.3.16a7.74,7.74,0,0,0-2.3-.69,3.85,3.85,0,0,0-3.25.77,3.79,3.79,0,0,1-4.23.39,21.18,21.18,0,0,0-2.21-.88,7.13,7.13,0,0,0-2.91-.11c-1.62.2-3.19.66-4.78,1a2,2,0,0,1-.69.06c-.39-.06-.46-.16-.42-.62S9.58,16.61,10.11,16.61Z"/><path class="b3d6beca-1357-44b5-be4f-7fa27478ede4" d="M31,20.67v.14c0,.38-.11.45-.45.26a8.16,8.16,0,0,0-1.91-.78,5,5,0,0,0-2.76-.08,3.68,3.68,0,0,0-.91.45,3.84,3.84,0,0,1-4.17.13c-.67-.33-1.32-.69-2-1a7.11,7.11,0,0,0-3.65-.53c-1.45.08-2.87.34-4.31.48a3.37,3.37,0,0,1-1.34-.13c-.23-.07-.31-.28-.23-.58s.23-.13.36-.11a5.07,5.07,0,0,0,1.65-.11c1.38-.22,2.74-.48,4.13-.58a7.41,7.41,0,0,1,4.08.86,7.66,7.66,0,0,0,2.53.94,3.29,3.29,0,0,0,2.21-.4,6.49,6.49,0,0,1,1.55-.85,5.44,5.44,0,0,1,2.63,0,8.57,8.57,0,0,1,2.11.8.61.61,0,0,1,.4.51A3.17,3.17,0,0,1,31,20.67Z"/><path class="fe93b769-cc7d-40eb-b022-182b48dec213" d="M11.07,22.27a3.39,3.39,0,0,1-1.3-.22c-.24-.09-.39-.22-.34-.51,0-.09,0-.2,0-.3s0-.16.15-.1a6.17,6.17,0,0,0,3.38.1,19.48,19.48,0,0,1,4.11-.13,6,6,0,0,1,2.24.76A17.35,17.35,0,0,0,21.48,23a3.65,3.65,0,0,0,2.19.23,2.66,2.66,0,0,0,1-.41,4.17,4.17,0,0,1,3.89-.4,9.31,9.31,0,0,1,1.52.66c.24.13.29.27.16.51a5.54,5.54,0,0,1-.36.62.28.28,0,0,1-.42.09,6.86,6.86,0,0,0-2.74-.81,3,3,0,0,0-1.72.4,3.86,3.86,0,0,1-2.19.66,4.73,4.73,0,0,1-2.06-.67q-.68-.39-1.32-.81A7.21,7.21,0,0,0,15.16,22c-1.18,0-2.35.17-3.53.21Z"/><path class="b2893290-fa8b-4f40-91ca-bfdb220ffac5" d="M14.93,24.94c-.73,0-1.45,0-2.18,0a3.48,3.48,0,0,1-2.25-.53,2.09,2.09,0,0,1-.22-.2.15.15,0,0,1,0-.18.14.14,0,0,1,.16-.08,34.11,34.11,0,0,0,4.17.07,13.73,13.73,0,0,1,2.39.24,4.86,4.86,0,0,1,.92.27c.11.05.33.09.28.25s-.33.15-.45.15Z"/></svg>