<svg id="a9b3b8c8-e954-45f2-87ea-1cefd6f8bb06" data-name="Layer 1" xmlns="http://www.w3.org/2000/svg" width="36px" height="40px"><defs><style>.b89ffa54-510b-4acd-9e0a-a1e354dca241{opacity:0.85;}.b102f177-1ba1-4135-a1e3-466bed83cc4c{fill:#f05523;}.a1b71035-4879-4344-bab8-b4322ecc9731{fill:#fff;}</style></defs><title>adopt-a-drain</title><g class="b89ffa54-510b-4acd-9e0a-a1e354dca241"><ellipse cx="11.29" cy="32.93" rx="8.75" ry="1.24"/></g><path class="b102f177-1ba1-4135-a1e3-466bed83cc4c" d="M.54,14.67A88.3,88.3,0,0,0,11.3,32.93,88.37,88.37,0,0,0,22.07,14.67Z"/><circle class="b102f177-1ba1-4135-a1e3-466bed83cc4c" cx="11.29" cy="11.38" r="11.29"/><path class="a1b71035-4879-4344-bab8-b4322ecc9731" d="M11.29,19.9a8.52,8.52,0,1,1,8.53-8.52A8.53,8.53,0,0,1,11.29,19.9Z"/><path class="a1b71035-4879-4344-bab8-b4322ecc9731" d="M11.29,3.2a8.18,8.18,0,1,1-8.18,8.18A8.18,8.18,0,0,1,11.29,3.2m0-.69a8.87,8.87,0,1,0,8.87,8.87,8.88,8.88,0,0,0-8.87-8.87Z"/><path class="b102f177-1ba1-4135-a1e3-466bed83cc4c" d="M7.44,13.48a4.36,4.36,0,0,1-1.8-3.2,3.61,3.61,0,0,1,5.66-3,3.64,3.64,0,0,1,2.06-.64,3.6,3.6,0,0,1,3.33,5,3.28,3.28,0,0,1-.45.79,3.51,3.51,0,0,1-.53.55L11.3,17Z"/><path class="a1b71035-4879-4344-bab8-b4322ecc9731" d="M13.36,7.65A2.63,2.63,0,0,1,16,10.28a2.66,2.66,0,0,1-.2,1,2.35,2.35,0,0,1-.33.57,3.45,3.45,0,0,1-.51.5l-.52.47-.65.58-.69.63-.67.6-.57.52-.4.35-.15.14-1.2-1.09-2-1.8a3.4,3.4,0,0,1-1.48-2.47A2.63,2.63,0,0,1,11.3,8.65a2.61,2.61,0,0,1,2.06-1m.86,5.11h0m-6.56-.4,0,0,0,0m0,0,0,0,0,0M13.36,5.7a4.53,4.53,0,0,0-2.06.49A4.53,4.53,0,0,0,9.24,5.7a4.59,4.59,0,0,0-4.58,4.58A5.25,5.25,0,0,0,6.78,14.2l.1.09L8.79,16l.61.55.6.54,1.3,1.17,1.3-1.17.15-.14.4-.35.28-.26.29-.26.67-.6.48-.43.22-.2.21-.19.43-.39L16,14l.26-.24.09-.08A4.58,4.58,0,0,0,17,13a4.7,4.7,0,0,0,.91-2.74A4.59,4.59,0,0,0,13.36,5.7Z"/></svg>