<?xml version="1.0" encoding="utf-8"?>
<svg version="1.1" id="Layer_1" xmlns="http://www.w3.org/2000/svg" xmlns:xlink="http://www.w3.org/1999/xlink" x="0px" y="0px"
	 viewBox="0 0 26.07 37.95" style="enable-background:new 0 0 26.07 37.95;" xml:space="preserve">
<style type="text/css">
	.b-st0{fill:#05A2D9;}
	.b-st1{fill:#FFFFFF;}
	.b-st2{fill:#FDFEFD;}
	.b-st3{fill:#FCFDFD;}
	.b-st4{fill:#FCFDFC;}
	.b-st5{fill:#FBFDFD;}
	.b-st6{fill:#99A7AA;}
	.b-st7{fill:#F05523;}
</style>
<g>
	<g>
		<path class="b-st7" d="M0.62,16.85c2.8,6.79,7.09,13.84,12.42,21.08c5.33-7.24,9.63-14.29,12.42-21.08H0.62z"/>
	</g>
	<g>
		<circle class="b-st7" cx="13.03" cy="13.06" r="13.03"/>
	</g>
	<g>
		<path class="b-st1" d="M13.03,22.89c-5.42,0-9.83-4.41-9.83-9.83s4.41-9.83,9.83-9.83c5.42,0,9.83,4.41,9.83,9.83
			S18.46,22.89,13.03,22.89z"/>
		<path class="b-st1" d="M13.03,3.62c5.21,0,9.44,4.23,9.44,9.44s-4.23,9.44-9.44,9.44c-5.21,0-9.44-4.23-9.44-9.44
			S7.82,3.62,13.03,3.62 M13.03,2.83C7.39,2.83,2.8,7.41,2.8,13.06s4.59,10.23,10.23,10.23c5.64,0,10.23-4.59,10.23-10.23
			S18.67,2.83,13.03,2.83L13.03,2.83z"/>
	</g>
	<g>
		<path class="b-st7" d="M8.58,15.48c-0.78-0.7-2.07-1.86-2.07-3.69c0-2.29,1.87-4.16,4.16-4.16c0.86,0,1.69,0.26,2.38,0.75
			c0.69-0.48,1.51-0.75,2.38-0.75c2.29,0,4.16,1.86,4.16,4.16c0,0.54-0.1,1.07-0.31,1.58c-0.13,0.32-0.3,0.62-0.52,0.91
			c-0.2,0.27-0.43,0.47-0.62,0.64l-4.34,3.9l-0.75,0.67L8.58,15.48z"/>
		<path class="b-st1" d="M15.42,8.76c1.67,0,3.03,1.36,3.03,3.03c0,0.39-0.08,0.79-0.23,1.15c-0.1,0.24-0.22,0.46-0.38,0.66
			c-0.17,0.22-0.38,0.39-0.59,0.58c-0.2,0.18-0.4,0.36-0.61,0.54c-0.25,0.22-0.5,0.45-0.75,0.67c-0.27,0.24-0.54,0.48-0.8,0.72
			c-0.26,0.23-0.52,0.46-0.77,0.7c-0.22,0.2-0.44,0.39-0.66,0.59c-0.15,0.14-0.31,0.27-0.46,0.41c-0.06,0.05-0.11,0.1-0.17,0.15
			c-0.46-0.42-0.93-0.83-1.39-1.25c-0.77-0.69-1.55-1.39-2.32-2.08c-0.86-0.77-1.7-1.6-1.7-2.85c0-1.67,1.36-3.03,3.03-3.03
			c0.96,0,1.82,0.45,2.38,1.15C13.6,9.21,14.45,8.76,15.42,8.76 M16.41,14.65C16.41,14.65,16.41,14.65,16.41,14.65
			C16.41,14.65,16.41,14.65,16.41,14.65C16.42,14.64,16.42,14.64,16.41,14.65C16.42,14.64,16.42,14.64,16.41,14.65 M8.84,14.19
			c0.01,0.01,0.02,0.02,0.03,0.02C8.86,14.21,8.85,14.2,8.84,14.19 M8.87,14.22c0.01,0.01,0.02,0.01,0.02,0.02
			C8.89,14.23,8.88,14.22,8.87,14.22 M15.42,6.51c-0.84,0-1.65,0.2-2.38,0.56c-0.73-0.37-1.54-0.56-2.38-0.56
			c-2.91,0-5.28,2.37-5.28,5.28c0,2.33,1.59,3.76,2.45,4.52l1.49,1.34l0.83,0.74l0.7,0.62l0.7,0.62l1.5,1.35l1.5-1.35l0.17-0.15
			l0.23-0.21l0.23-0.21l0.66-0.59l0.39-0.35l0.38-0.34l0.8-0.72l0.27-0.24l0.48-0.43l0.28-0.25l0.33-0.3l0.1-0.09
			c0.21-0.19,0.51-0.44,0.78-0.81c0.27-0.36,0.49-0.75,0.66-1.15c0.26-0.64,0.4-1.31,0.4-2.01C20.7,8.88,18.33,6.51,15.42,6.51
			L15.42,6.51z"/>
	</g>
</g>
</svg>
